<svg width="24" height="24" viewBox="0 0 24 24" fill="none" xmlns="http://www.w3.org/2000/svg">
<path d="M12 21.6L11.4336 22.1664C11.5079 22.2409 11.5962 22.3 11.6934 22.3403C11.7906 22.3806 11.8948 22.4014 12 22.4014C12.1052 22.4014 12.2094 22.3806 12.3066 22.3403C12.4038 22.3 12.4921 22.2409 12.5664 22.1664L12 21.6ZM12 5.59998L11.4336 6.16638C11.5079 6.24088 11.5962 6.29999 11.6934 6.34032C11.7906 6.38065 11.8948 6.40141 12 6.40141C12.1052 6.40141 12.2094 6.38065 12.3066 6.34032C12.4038 6.29999 12.4921 6.24088 12.5664 6.16638L12 5.59998ZM12.5664 21.0336L3.0224 11.4912L1.8912 12.6224L11.4336 22.1664L12.5664 21.0336ZM20.9776 11.4912L11.4336 21.0336L12.5664 22.1664L22.1088 12.6224L20.9776 11.4912ZM9.8912 4.62238L11.4336 6.16638L12.5664 5.03358L11.0224 3.49118L9.8912 4.62238ZM12.5664 6.16638L14.1088 4.62238L12.9776 3.49118L11.4336 5.03358L12.5664 6.16638ZM17.5424 1.59998C15.8304 1.59998 14.1888 2.27998 12.9776 3.49118L14.1088 4.62238C15.0196 3.71198 16.2546 3.20039 17.5424 3.19998V1.59998ZM22.4 8.05758C22.4 9.34558 21.888 10.5808 20.976 11.4912L22.1088 12.6224C23.3194 11.4117 23.9997 9.76972 24 8.05758H22.4ZM24 8.05758C24 6.34491 23.3196 4.7024 22.1086 3.49136C20.8976 2.28033 19.2551 1.59998 17.5424 1.59998V3.19998C18.8307 3.19998 20.0663 3.71176 20.9772 4.62273C21.8882 5.53371 22.4 6.76926 22.4 8.05758H24ZM6.4576 3.19998C7.7456 3.19998 8.9808 3.71198 9.8912 4.62398L11.0224 3.49118C9.81168 2.28056 8.16975 1.6003 6.4576 1.59998V3.19998ZM1.6 8.05758C1.6 6.76926 2.11178 5.53371 3.02276 4.62273C3.93373 3.71176 5.16928 3.19998 6.4576 3.19998V1.59998C4.74494 1.59998 3.10242 2.28033 1.89139 3.49136C0.680352 4.7024 0 6.34491 0 8.05758H1.6ZM3.0224 11.4912C2.57118 11.0404 2.21478 10.5052 1.97045 9.91602C1.72612 9.32688 1.60024 8.69537 1.6 8.05758H0C0 9.76958 0.68 11.4112 1.8912 12.6224L3.0224 11.4912Z" fill="black"/>
</svg>
