<svg xmlns="http://www.w3.org/2000/svg" width="24" height="24" viewBox="0 0 24 24" fill="none">
    <path d="M23.1998 23.2L16.7998 16.8M10.3998 20C9.13911 20 7.89077 19.7517 6.72604 19.2693C5.56132 18.7868 4.50302 18.0797 3.61158 17.1883C2.72014 16.2968 2.01301 15.2385 1.53056 14.0738C1.04812 12.9091 0.799805 11.6607 0.799805 10.4C0.799805 9.13936 1.04812 7.89101 1.53056 6.72629C2.01301 5.56156 2.72014 4.50327 3.61158 3.61182C4.50302 2.72038 5.56132 2.01325 6.72604 1.53081C7.89077 1.04836 9.13911 0.800049 10.3998 0.800049C12.9459 0.800049 15.3877 1.81147 17.188 3.61182C18.9884 5.41217 19.9998 7.85397 19.9998 10.4C19.9998 12.9461 18.9884 15.3879 17.188 17.1883C15.3877 18.9886 12.9459 20 10.3998 20Z" stroke="black" stroke-width="1.6"/>
</svg>