<svg width="24" height="24" viewBox="0 0 24 24" fill="none" xmlns="http://www.w3.org/2000/svg">
<path fill-rule="evenodd" clip-rule="evenodd" d="M9.5102 0.800049L9.3726 1.49925L8.8462 4.05605C8.01963 4.3773 7.24616 4.82122 6.5518 5.37285L3.979 4.51205L3.2878 4.29925L2.9294 4.91525L1.1582 7.87685L0.799805 8.49605L1.3246 8.95525L3.315 10.648C3.243 11.0912 3.1502 11.528 3.1502 11.9936C3.1502 12.4592 3.243 12.8976 3.315 13.3408L1.3246 15.032L0.799805 15.4912L1.1582 16.1088L2.9294 19.0688L3.2878 19.688L3.979 19.472L6.5518 18.6128C7.2414 19.1536 8.0046 19.608 8.8462 19.9296L9.3726 22.4864L9.5102 23.1856H14.4878L14.627 22.4864L15.1518 19.9296C15.9783 19.6083 16.7518 19.1644 17.4462 18.6128L20.019 19.472L20.7102 19.688L21.0702 19.0704L22.8398 16.1088L23.1998 15.4912L22.6734 15.032L20.683 13.3392C20.7566 12.896 20.8478 12.4592 20.8478 11.992C20.8478 11.528 20.7566 11.0896 20.683 10.6464L22.6734 8.95365L23.1998 8.49445L22.8398 7.87685L21.0702 4.91685L20.7102 4.29925L20.019 4.51365L17.4462 5.37285C16.7519 4.82122 15.9784 4.3773 15.1518 4.05605L14.627 1.49925L14.4878 0.800049H9.5102Z" stroke="black" stroke-width="1.6" stroke-linecap="square" stroke-linejoin="round"/>
<path fill-rule="evenodd" clip-rule="evenodd" d="M15.1998 11.992C15.1998 12.8407 14.8627 13.6546 14.2625 14.2547C13.6624 14.8549 12.8485 15.192 11.9998 15.192C11.1511 15.192 10.3372 14.8549 9.73706 14.2547C9.13695 13.6546 8.7998 12.8407 8.7998 11.992C8.7998 11.1433 9.13695 10.3294 9.73706 9.72925C10.3372 9.12913 11.1511 8.79199 11.9998 8.79199C12.8485 8.79199 13.6624 9.12913 14.2625 9.72925C14.8627 10.3294 15.1998 11.1433 15.1998 11.992Z" stroke="black" stroke-width="1.6" stroke-linecap="square" stroke-linejoin="round"/>
</svg>
