<svg xmlns="http://www.w3.org/2000/svg" width="24" height="24" viewBox="0 0 24 24" fill="none">
    <path d="M0.8 16.8005L0.2336 16.2341L0 16.4693V16.8005H0.8ZM16.8 0.800453L17.3664 0.234053C17.2921 0.159552 17.2038 0.100444 17.1066 0.0601134C17.0094 0.0197831 16.9052 -0.000976563 16.8 -0.000976562C16.6948 -0.000976562 16.5906 0.0197831 16.4934 0.0601134C16.3962 0.100444 16.3079 0.159552 16.2336 0.234053L16.8 0.800453ZM23.2 7.20045L23.7664 7.76685C23.8409 7.69254 23.9 7.60426 23.9403 7.50707C23.9807 7.40987 24.0014 7.30568 24.0014 7.20045C24.0014 7.09523 23.9807 6.99103 23.9403 6.89384C23.9 6.79665 23.8409 6.70837 23.7664 6.63405L23.2 7.20045ZM7.2 23.2005V24.0005H7.5312L7.7664 23.7669L7.2 23.2005ZM0.8 23.2005H0C0 23.4126 0.0842855 23.6161 0.234315 23.7661C0.384344 23.9162 0.587827 24.0005 0.8 24.0005V23.2005ZM1.3664 17.3669L17.3664 1.36685L16.2336 0.234053L0.2336 16.2341L1.3664 17.3669ZM16.2336 1.36685L22.6336 7.76685L23.7664 6.63405L17.3664 0.234053L16.2336 1.36685ZM22.6336 6.63405L6.6336 22.6341L7.7664 23.7669L23.7664 7.76685L22.6336 6.63405ZM7.2 22.4005H0.8V24.0005H7.2V22.4005ZM1.6 23.2005V16.8005H0L0 23.2005H1.6Z" fill="black"/>
</svg>