<svg width="24" height="24" viewBox="0 0 24 24" fill="none" xmlns="http://www.w3.org/2000/svg">
<path d="M6.45798 1.59998C5.18073 1.5999 3.93215 1.97859 2.87013 2.68816C1.80812 3.39772 0.980371 4.40629 0.491579 5.58631C0.00278813 6.76633 -0.125095 8.06479 0.124104 9.31749C0.373303 10.5702 0.988391 11.7209 1.89158 12.624L11.434 22.1664C11.5083 22.2409 11.5966 22.3 11.6938 22.3403C11.791 22.3806 11.8952 22.4014 12.0004 22.4014C12.1056 22.4014 12.2098 22.3806 12.307 22.3403C12.4042 22.3 12.4925 22.2409 12.5668 22.1664L22.1092 12.6224C23.2875 11.4048 23.94 9.77297 23.9262 8.07868C23.9123 6.3844 23.2331 4.76345 22.035 3.56537C20.8369 2.36729 19.216 1.68807 17.5217 1.6742C15.8274 1.66032 14.1955 2.31288 12.978 3.49118L12.0004 4.46718L11.0244 3.49118C10.4245 2.89135 9.71233 2.4156 8.92853 2.0911C8.14474 1.7666 7.30629 1.59972 6.45798 1.59998Z" fill="#E8635C"/>
</svg>
