<svg width="24" height="24" viewBox="0 0 24 24" fill="none" xmlns="http://www.w3.org/2000/svg">
<path d="M12 0.800053L12.52 0.192053C12.3751 0.0681091 12.1907 0 12 0C11.8093 0 11.6249 0.0681091 11.48 0.192053L12 0.800053ZM0.8 10.4001L0.28 9.79205L0 10.0321V10.4001H0.8ZM8.8 23.2001V24.0001C9.01217 24.0001 9.21566 23.9158 9.36569 23.7657C9.51571 23.6157 9.6 23.4122 9.6 23.2001H8.8ZM15.2 23.2001H14.4C14.4 23.4122 14.4843 23.6157 14.6343 23.7657C14.7843 23.9158 14.9878 24.0001 15.2 24.0001V23.2001ZM23.2 10.4001H24V10.0321L23.72 9.79205L23.2 10.4001ZM2.4 24.0001H8.8V22.4001H2.4V24.0001ZM23.72 9.79205L12.52 0.192053L11.48 1.40805L22.68 11.0081L23.72 9.79205ZM11.48 0.192053L0.28 9.79205L1.32 11.0081L12.52 1.40805L11.48 0.192053ZM9.6 23.2001V18.4001H8V23.2001H9.6ZM14.4 18.4001V23.2001H16V18.4001H14.4ZM15.2 24.0001H21.6V22.4001H15.2V24.0001ZM24 21.6001V10.4001H22.4V21.6001H24ZM0 10.4001V21.6001H1.6V10.4001H0ZM12 16.0001C12.6365 16.0001 13.247 16.2529 13.6971 16.703C14.1471 17.1531 14.4 17.7635 14.4 18.4001H16C16 17.3392 15.5786 16.3218 14.8284 15.5716C14.0783 14.8215 13.0609 14.4001 12 14.4001V16.0001ZM12 14.4001C10.9391 14.4001 9.92172 14.8215 9.17157 15.5716C8.42143 16.3218 8 17.3392 8 18.4001H9.6C9.6 17.7635 9.85286 17.1531 10.3029 16.703C10.753 16.2529 11.3635 16.0001 12 16.0001V14.4001ZM21.6 24.0001C22.2365 24.0001 22.847 23.7472 23.2971 23.2971C23.7471 22.847 24 22.2366 24 21.6001H22.4C22.4 21.8122 22.3157 22.0157 22.1657 22.1657C22.0157 22.3158 21.8122 22.4001 21.6 22.4001V24.0001ZM2.4 22.4001C2.18783 22.4001 1.98434 22.3158 1.83431 22.1657C1.68429 22.0157 1.6 21.8122 1.6 21.6001H0C0 22.2366 0.252856 22.847 0.702944 23.2971C1.15303 23.7472 1.76348 24.0001 2.4 24.0001V22.4001Z" fill="black"/>
</svg>
