<svg width="28" height="28" viewBox="0 0 28 28" fill="none" xmlns="http://www.w3.org/2000/svg">
<g clip-path="url(#clip0_696_1922)">
<path d="M14.0001 13.2223C15.0769 13.2223 16.1295 12.903 17.0249 12.3047C17.9202 11.7065 18.618 10.8562 19.0301 9.86132C19.4422 8.86648 19.55 7.77178 19.3399 6.71566C19.1299 5.65954 18.6113 4.68944 17.8499 3.92802C17.0885 3.1666 16.1184 2.64807 15.0623 2.43799C14.0061 2.22791 12.9115 2.33573 11.9166 2.74781C10.9218 3.15989 10.0715 3.85772 9.47322 4.75305C8.87497 5.64838 8.55566 6.70101 8.55566 7.77782C8.55566 9.22178 9.12927 10.6066 10.1503 11.6276C11.1713 12.6487 12.5562 13.2223 14.0001 13.2223ZM14.0001 3.88893C14.7693 3.88893 15.5211 4.11701 16.1607 4.54433C16.8002 4.97164 17.2986 5.57901 17.593 6.28961C17.8873 7.00021 17.9643 7.78213 17.8143 8.5365C17.6642 9.29088 17.2938 9.98381 16.75 10.5277C16.2061 11.0716 15.5132 11.4419 14.7588 11.592C14.0044 11.742 13.2225 11.665 12.5119 11.3707C11.8013 11.0763 11.1939 10.5779 10.7666 9.93837C10.3393 9.29885 10.1112 8.54697 10.1112 7.77782C10.1112 6.74642 10.5209 5.75727 11.2502 5.02796C11.9796 4.29865 12.9687 3.88893 14.0001 3.88893Z" fill="black"/>
<path d="M23.6987 18.9545C22.4514 17.6362 20.9483 16.5861 19.2813 15.8684C17.6144 15.1508 15.8185 14.7806 14.0037 14.7806C12.1888 14.7806 10.393 15.1508 8.72603 15.8684C7.05907 16.5861 5.55599 17.6362 4.30867 18.9545C4.03825 19.2433 3.88806 19.6244 3.88867 20.02V24.1112C3.88867 24.5237 4.05256 24.9194 4.34429 25.2111C4.63601 25.5028 5.03167 25.6667 5.44423 25.6667H22.5553C22.9679 25.6667 23.3636 25.5028 23.6553 25.2111C23.947 24.9194 24.1109 24.5237 24.1109 24.1112V20.02C24.1136 19.6254 23.9663 19.2445 23.6987 18.9545ZM22.5553 24.1112H5.44423V20.0123C6.54652 18.8516 7.87345 17.9273 9.34429 17.2957C10.8151 16.6641 12.3991 16.3384 13.9998 16.3384C15.6005 16.3384 17.1845 16.6641 18.6553 17.2957C20.1261 17.9273 21.4531 18.8516 22.5553 20.0123V24.1112Z" fill="black"/>
</g>
<defs>
<clipPath id="clip0_696_1922">
<rect width="28" height="28" fill="white"/>
</clipPath>
</defs>
</svg>
